<svg xmlns="http://www.w3.org/2000/svg" xmlns:xlink="http://www.w3.org/1999/xlink" viewBox="0 0 635.45 103.56">
  <defs>
    <style>
      .cls-1 {
        fill: none;
      }

      .cls-2 {
        isolation: isolate;
      }

      .cls-3 {
        clip-path: url(#clip-path);
      }

      .cls-4 {
        fill: #ec8c2d;
      }

      .cls-5 {
        fill: #0e1d38;
      }

      .cls-6 {
        fill: #612d54;
      }

      .cls-7, .cls-8 {
        mix-blend-mode: multiply;
      }

      .cls-7 {
        fill: url(#linear-gradient);
      }

      .cls-8 {
        fill: url(#linear-gradient-2);
      }

      .cls-10, .cls-9 {
        fill: #fff;
      }

      .cls-10 {
        font-size: 10px;
        font-family: Poppins-Thin, Poppins;
        font-weight: 200;
      }

      .cls-11 {
        fill: #f7f7f8;
      }
    </style>
    <clipPath id="clip-path" transform="translate(-6911.2 -7196.11)">
      <rect class="cls-1" x="6931.29" y="7110.86" width="595.28" height="178.29"/>
    </clipPath>
    <linearGradient id="linear-gradient" x1="7805.76" y1="7307.97" x2="7841.27" y2="7329.15" gradientTransform="matrix(0, -1, -1, 0, 7368.08, 7852.84)" gradientUnits="userSpaceOnUse">
      <stop offset="0" stop-color="#4d2247"/>
      <stop offset="0.28" stop-color="#4d2247" stop-opacity="0.57"/>
      <stop offset="0.55" stop-color="#4d2247" stop-opacity="0.25"/>
      <stop offset="0.79" stop-color="#4d2247" stop-opacity="0.07"/>
      <stop offset="1" stop-color="#4d2247" stop-opacity="0"/>
    </linearGradient>
    <linearGradient id="linear-gradient-2" x1="19.17" y1="64.81" x2="58.48" y2="86.69" gradientUnits="userSpaceOnUse">
      <stop offset="0" stop-color="#a95c29" stop-opacity="0"/>
      <stop offset="0.13" stop-color="#a95c29" stop-opacity="0.03"/>
      <stop offset="0.29" stop-color="#a95c29" stop-opacity="0.12"/>
      <stop offset="0.46" stop-color="#a95c29" stop-opacity="0.26"/>
      <stop offset="0.64" stop-color="#a95c29" stop-opacity="0.46"/>
      <stop offset="0.82" stop-color="#a95c29" stop-opacity="0.71"/>
      <stop offset="1" stop-color="#a95c29"/>
    </linearGradient>
  </defs>
  <title>footer</title>
  <g class="cls-2">
    <g id="Camada_1" data-name="Camada 1">
      <g class="cls-3">
        <polygon class="cls-4" points="20.09 93.03 32.82 93.03 70.97 65.93 20.09 58.24 20.09 93.03"/>
        <g>
          <rect class="cls-5" y="36.34" width="635.45" height="67.22"/>
          <polygon class="cls-6" points="93.32 29.18 20.09 53.55 20.09 0 93.32 29.18"/>
          <polygon class="cls-7" points="51.44 12.49 93.32 29.18 20.09 53.55 20.09 22.55 51.44 12.49"/>
          <path class="cls-6" d="M7040.09,7220.9a32.72,32.72,0,0,0-21-.47l-87.82,29.22v39.49h280Z" transform="translate(-6911.2 -7196.11)"/>
          <path class="cls-4" d="M6990.72,7256,6944,7289.14h309.76l-243.14-36.73C7003.21,7251.29,6995.28,7252.71,6990.72,7256Z" transform="translate(-6911.2 -7196.11)"/>
          <polygon class="cls-8" points="20.09 58.52 20.09 93.03 32.82 93.03 70.97 65.93 20.42 58.29 20.09 58.52"/>
        </g>
      </g>
      <g>
        <path class="cls-9" d="M7172.73,7243.54v-1.76a.65.65,0,0,0-.65-.66h-1.69a1,1,0,0,0-1,1v7.31a1,1,0,0,0,1,1h1.69a.65.65,0,0,0,.65-.66V7248a.65.65,0,0,0-.65-.65h-.75a.28.28,0,0,1-.27-.28v-2.63a.28.28,0,0,1,.27-.28h.75A.65.65,0,0,0,7172.73,7243.54Z" transform="translate(-6911.2 -7196.11)"/>
        <text class="cls-10" transform="translate(264.14 51.89)">+55 (19) 99156-6803 ou +55 (19) 981832923</text>
      </g>
      <g>
        <g>
          <path class="cls-9" d="M7222.16,7260.3a1,1,0,0,0-.07-.34l-3.08,2.82,3.12,2.85a.93.93,0,0,0,0-.24Z" transform="translate(-6911.2 -7196.11)"/>
          <path class="cls-9" d="M7217.7,7263.09l4-3.63a1,1,0,0,0-.48-.13h-7a1,1,0,0,0-.47.13Z" transform="translate(-6911.2 -7196.11)"/>
          <path class="cls-9" d="M7213.3,7260a1,1,0,0,0-.07.34v5.09a.93.93,0,0,0,0,.24l3.11-2.85Z" transform="translate(-6911.2 -7196.11)"/>
          <path class="cls-9" d="M7218.52,7263.22l-.6.56a.32.32,0,0,1-.22.08.3.3,0,0,1-.22-.08l-.61-.56-3.23,3a1,1,0,0,0,.56.18h7a1,1,0,0,0,.57-.18Z" transform="translate(-6911.2 -7196.11)"/>
        </g>
        <text class="cls-10" transform="translate(319.63 68.28)">contato@pwmlab.com</text>
      </g>
      <g>
        <g>
          <path class="cls-11" d="M7245.51,7274.57c1.26,0,1.4,0,1.9,0a2.64,2.64,0,0,1,.87.16,1.53,1.53,0,0,1,.54.35,1.48,1.48,0,0,1,.35.54,2.5,2.5,0,0,1,.16.87c0,.5,0,.65,0,1.9s0,1.4,0,1.9a2.5,2.5,0,0,1-.16.87,1.48,1.48,0,0,1-.35.54,1.53,1.53,0,0,1-.54.35,2.64,2.64,0,0,1-.87.16c-.5,0-.64,0-1.9,0s-1.4,0-1.89,0a2.78,2.78,0,0,1-.88-.16,1.73,1.73,0,0,1-.54-.35,1.62,1.62,0,0,1-.35-.54,2.77,2.77,0,0,1-.16-.87c0-.5,0-.65,0-1.9s0-1.4,0-1.9a2.77,2.77,0,0,1,.16-.87,1.62,1.62,0,0,1,.35-.54,1.73,1.73,0,0,1,.54-.35,2.78,2.78,0,0,1,.88-.16c.49,0,.64,0,1.89,0m0-.84c-1.27,0-1.43,0-1.93,0a3.83,3.83,0,0,0-1.14.22,2.29,2.29,0,0,0-.83.54,2.32,2.32,0,0,0-.54.84,3.22,3.22,0,0,0-.22,1.13c0,.51,0,.67,0,1.94s0,1.43,0,1.94a3.22,3.22,0,0,0,.22,1.13,2.41,2.41,0,0,0,.54.84,2.29,2.29,0,0,0,.83.54,3.83,3.83,0,0,0,1.14.22c.5,0,.66,0,1.93,0s1.44,0,1.94,0a3.83,3.83,0,0,0,1.14-.22,2.29,2.29,0,0,0,.83-.54,2.41,2.41,0,0,0,.54-.84,3.22,3.22,0,0,0,.22-1.13c0-.51,0-.67,0-1.94s0-1.43,0-1.94a3.22,3.22,0,0,0-.22-1.13,2.32,2.32,0,0,0-.54-.84,2.29,2.29,0,0,0-.83-.54,3.83,3.83,0,0,0-1.14-.22c-.5,0-.66,0-1.94,0" transform="translate(-6911.2 -7196.11)"/>
          <path class="cls-11" d="M7245.51,7276a2.41,2.41,0,1,0,2.41,2.41,2.41,2.41,0,0,0-2.41-2.41m0,4a1.56,1.56,0,1,1,1.57-1.56,1.56,1.56,0,0,1-1.57,1.56" transform="translate(-6911.2 -7196.11)"/>
          <path class="cls-11" d="M7248.58,7275.91a.56.56,0,0,1-.56.57.57.57,0,1,1,0-1.13.56.56,0,0,1,.56.56" transform="translate(-6911.2 -7196.11)"/>
        </g>
        <text class="cls-10" transform="translate(344.55 83.85)">@PWM.lab</text>
      </g>
    </g>
  </g>
</svg>
