<svg id="Camada_1" data-name="Camada 1" xmlns="http://www.w3.org/2000/svg" viewBox="0 0 237.17 100.2">
  <defs>
    <style>
      .cls-1 {
        fill: #0d1e39;
      }

      .cls-2 {
        fill: #821446;
      }

      .cls-3 {
        fill: #b03363;
      }

      .cls-4 {
        fill: #bc4b80;
      }

      .cls-5 {
        fill: #ff9cc9;
      }

      .cls-6 {
        fill: #ff5a7e;
      }

      .cls-7 {
        fill: #d80e56;
      }

      .cls-8 {
        fill: #b92a00;
      }

      .cls-9 {
        fill: #dc5927;
      }

      .cls-10 {
        fill: #ef7c59;
      }

      .cls-11 {
        fill: #ff9271;
      }

      .cls-12 {
        fill: #ec5a00;
      }

      .cls-13 {
        fill: #f79125;
      }

      .cls-14 {
        fill: #ff9700;
      }

      .cls-15 {
        fill: #ffba60;
      }

      .cls-16 {
        fill: #e37a00;
      }

      .cls-17 {
        fill: #ff9ebf;
      }

      .cls-18 {
        fill: #84a2b4;
        opacity: 0.1;
      }

      .cls-19 {
        fill: #8ba7be;
      }

      .cls-20 {
        fill: #fff;
        stroke: #000;
      }

      .cls-20, .cls-33, .cls-34 {
        stroke-miterlimit: 10;
      }

      .cls-21 {
        fill: #62809a;
      }

      .cls-22 {
        fill: #cad4dc;
      }

      .cls-23 {
        fill: #b5cadd;
      }

      .cls-24 {
        fill: #6893b7;
      }

      .cls-25 {
        fill: #9ebdda;
      }

      .cls-26 {
        fill: #96dbff;
      }

      .cls-27 {
        fill: #ec520d;
      }

      .cls-28 {
        fill: #e55400;
      }

      .cls-28, .cls-36, .cls-37 {
        opacity: 0.3;
      }

      .cls-29 {
        fill: #632d57;
      }

      .cls-30 {
        fill: #79c5ee;
      }

      .cls-31 {
        fill: #ddf1ff;
      }

      .cls-32 {
        fill: #4388ad;
      }

      .cls-33, .cls-34 {
        fill: none;
        stroke: #f79125;
        stroke-linecap: round;
      }

      .cls-34 {
        stroke-dasharray: 11.22 11.22;
      }

      .cls-35 {
        fill: #f3f3f3;
      }

      .cls-36 {
        fill: #0074a3;
      }

      .cls-37, .cls-42 {
        fill: #c4c4c4;
      }

      .cls-38 {
        fill: #652c83;
      }

      .cls-39, .cls-41 {
        fill: #3e0c5a;
      }

      .cls-39, .cls-40 {
        opacity: 0.4;
      }

      .cls-43 {
        opacity: 0.28;
      }

      .cls-44 {
        fill: #ad0a37;
      }

      .cls-45 {
        fill: #161153;
      }
    </style>
  </defs>
  <title>robgcpc</title>
  <path class="cls-1" d="M7082.24,7094.06h237.17v54.83c-11.6-11.75-68.81-23.64-122-1.54-44.3,18.4-79.48,31-115.18,28.28Z" transform="translate(-7082.24 -7094.06)"/>
  <g>
    <g>
      <g>
        <g>
          <path class="cls-2" d="M7256.32,7125.27a1,1,0,0,1-1.44.1h0a1,1,0,0,1,.1-1.44l.46-.45a1,1,0,0,1,1.43-.1h0a1,1,0,0,1-.1,1.43Z" transform="translate(-7082.24 -7094.06)"/>
          <path class="cls-2" d="M7256.3,7127.65a.86.86,0,0,1-.94-.95h0a1.18,1.18,0,0,1,1.08-1.08l.6-.05a.86.86,0,0,1,.95,1h0a1.21,1.21,0,0,1-1.09,1.09Z" transform="translate(-7082.24 -7094.06)"/>
          <path class="cls-2" d="M7254.59,7129.55a1,1,0,0,1,.1-1.43h0a1,1,0,0,1,1.44-.1l.4.39a1,1,0,0,1-.1,1.44h0a1,1,0,0,1-1.44.1Z" transform="translate(-7082.24 -7094.06)"/>
          <path class="cls-2" d="M7252.19,7129.87a1.21,1.21,0,0,1,1.09-1.09h0a.86.86,0,0,1,.94.95l0,.6a1.21,1.21,0,0,1-1.08,1.09h0a.87.87,0,0,1-1-.95Z" transform="translate(-7082.24 -7094.06)"/>
          <path class="cls-2" d="M7250.51,7128.41a1,1,0,0,1,1.43-.1h0a1,1,0,0,1-.1,1.44l-.45.45a1,1,0,0,1-1.44.1h0a1,1,0,0,1,.1-1.44Z" transform="translate(-7082.24 -7094.06)"/>
          <path class="cls-2" d="M7250.52,7126a.86.86,0,0,1,.95.94h0a1.21,1.21,0,0,1-1.09,1.09l-.6,0a.87.87,0,0,1-.95-.94h0a1.21,1.21,0,0,1,1.09-1.09Z" transform="translate(-7082.24 -7094.06)"/>
          <path class="cls-2" d="M7252.23,7124.12a1,1,0,0,1-.1,1.44h0a1,1,0,0,1-1.43.1l-.4-.4a1,1,0,0,1,.1-1.43h0a1,1,0,0,1,1.44-.1Z" transform="translate(-7082.24 -7094.06)"/>
          <path class="cls-2" d="M7254.64,7123.81a1.2,1.2,0,0,1-1.09,1.08h0a.86.86,0,0,1-.95-.94l0-.6a1.21,1.21,0,0,1,1.09-1.09h0a.86.86,0,0,1,1,.95Z" transform="translate(-7082.24 -7094.06)"/>
          <path class="cls-2" d="M7256.58,7125.6a3.52,3.52,0,0,0-.15-.42,0,0,0,0,0,0,0,2.7,2.7,0,0,0-.37-.6,1.54,1.54,0,0,0-.17-.19,2.77,2.77,0,0,0-.72-.51l-.07,0a2.32,2.32,0,0,0-.44-.16,1.8,1.8,0,0,0-.32-.06l-.31,0h-.45a3.63,3.63,0,0,0-1,.23,3.31,3.31,0,0,0-.47.22l0,0-.23.14a4,4,0,0,0-1.24,1.32s0,0,0,.06l-.11.2c0,.09-.08.18-.11.27a3.27,3.27,0,0,0-.23,1.53l0,.24a1.22,1.22,0,0,0,.06.26v0a3.52,3.52,0,0,0,.15.42,2.5,2.5,0,0,0,.55.79l.12.12.06.05a2.52,2.52,0,0,0,.45.3l.16.08a3.29,3.29,0,0,0,.44.16,3.14,3.14,0,0,0,1.4,0,3.11,3.11,0,0,0,.64-.19,2.83,2.83,0,0,0,.36-.16l.1-.05a4.27,4.27,0,0,0,.88-.67,3.55,3.55,0,0,0,.55-.69,1.74,1.74,0,0,0,.11-.18,2.86,2.86,0,0,0,.22-.47,4.42,4.42,0,0,0,.15-.48A3.29,3.29,0,0,0,7256.58,7125.6Zm-3.9.5a1.24,1.24,0,0,1,1.11-.36,1.17,1.17,0,0,1-.23,1.44,1.22,1.22,0,0,1-1.11.36A1.15,1.15,0,0,1,7252.68,7126.1Z" transform="translate(-7082.24 -7094.06)"/>
          <path class="cls-2" d="M7256.18,7125.67a2.09,2.09,0,0,0-.08-.23,2.29,2.29,0,0,0-.1-.23h0a2.64,2.64,0,0,0-.23-.35l-.17-.19a2.5,2.5,0,0,0-.67-.46l-.11-.05-.23-.08a2.46,2.46,0,0,0-.47-.1l-.25,0a3.19,3.19,0,0,0-1.24.25l-.24.12h0a3.08,3.08,0,0,0-.5.33,3.62,3.62,0,0,0-.75.79,3.24,3.24,0,0,0-.21.35,2.56,2.56,0,0,0-.11.24v0a3.13,3.13,0,0,0-.24,1.26,2.2,2.2,0,0,0,0,.36,1.94,1.94,0,0,0,.07.33,1.43,1.43,0,0,0,.08.22,2.27,2.27,0,0,0,.52.78l.08.08.09.08h0l.21.16a3,3,0,0,0,.4.2l.22.08a3.29,3.29,0,0,0,.43.09,3,3,0,0,0,.94,0,2.61,2.61,0,0,0,.6-.19l.07,0,.17-.08a3.43,3.43,0,0,0,1.43-1.39l.06-.1.11-.24c.05-.13.1-.27.14-.41A2.81,2.81,0,0,0,7256.18,7125.67Zm-3.5.43a1.24,1.24,0,0,1,1.11-.36,1.17,1.17,0,0,1-.23,1.44,1.22,1.22,0,0,1-1.11.36A1.15,1.15,0,0,1,7252.68,7126.1Z" transform="translate(-7082.24 -7094.06)"/>
          <path class="cls-2" d="M7254.79,7126.17a1.11,1.11,0,0,0-.28-.43,1.15,1.15,0,0,0-.51-.3,1.47,1.47,0,0,0-.63,0,1.76,1.76,0,0,0-.91.48,1.61,1.61,0,0,0-.48,1.41,1.2,1.2,0,0,0,.25.55l.08.1a1.38,1.38,0,0,0,1.51.23,1.7,1.7,0,0,0,.55-.38,1.37,1.37,0,0,0,.29-.39,1.51,1.51,0,0,0,.2-.61A1.43,1.43,0,0,0,7254.79,7126.17Zm-2.11-.07a1.24,1.24,0,0,1,1.11-.36,1.17,1.17,0,0,1-.23,1.44,1.22,1.22,0,0,1-1.11.36A1.15,1.15,0,0,1,7252.68,7126.1Z" transform="translate(-7082.24 -7094.06)"/>
          <path class="cls-2" d="M7254.15,7127.57a1.18,1.18,0,0,1-1.28.31.75.75,0,0,1-.3-.2.53.53,0,0,1-.12-.14,1.22,1.22,0,0,0,1.11-.36,1.17,1.17,0,0,0,.23-1.44,1,1,0,0,1,.47.25h0A1.12,1.12,0,0,1,7254.15,7127.57Z" transform="translate(-7082.24 -7094.06)"/>
        </g>
        <path class="cls-2" d="M7251.62,7123.57l-.51-.35s-.14,0,0,.26S7251.62,7123.57,7251.62,7123.57Z" transform="translate(-7082.24 -7094.06)"/>
        <path class="cls-2" d="M7254.19,7122.34l-.53-.36a.24.24,0,0,0,0,.36c.18.22.25.31.38.25A.31.31,0,0,0,7254.19,7122.34Z" transform="translate(-7082.24 -7094.06)"/>
        <path class="cls-2" d="M7256.72,7123.25l-.57-.38s-.24.05,0,.35.36.36.46.29S7256.72,7123.25,7256.72,7123.25Z" transform="translate(-7082.24 -7094.06)"/>
        <path class="cls-2" d="M7257.61,7125.72l-.6-.4s-.21.05,0,.34.49.4.56.36S7257.61,7125.72,7257.61,7125.72Z" transform="translate(-7082.24 -7094.06)"/>
        <path class="cls-2" d="M7254.57,7129.69l.58.39s.13,0,.09-.14a.57.57,0,0,0-.3-.44C7254.73,7129.41,7254.57,7129.69,7254.57,7129.69Z" transform="translate(-7082.24 -7094.06)"/>
        <path class="cls-2" d="M7252.74,7131.19l-.1.14-.73-.46s-.17-.27.24-.27S7252.74,7131.19,7252.74,7131.19Z" transform="translate(-7082.24 -7094.06)"/>
        <path class="cls-2" d="M7250.05,7130.38l-.69-.47.78-.68s.48.6.39.78-.48.37-.48.37" transform="translate(-7082.24 -7094.06)"/>
        <path class="cls-2" d="M7249.21,7128l-.58-.39.67-.77s.48.61.39.79a1.48,1.48,0,0,1-.48.37" transform="translate(-7082.24 -7094.06)"/>
      </g>
      <g>
        <g>
          <path class="cls-3" d="M7255.73,7124.88a1,1,0,0,1-1.44.1h0a1,1,0,0,1,.1-1.44l.46-.46a1,1,0,0,1,1.44-.1h0a1,1,0,0,1-.1,1.44Z" transform="translate(-7082.24 -7094.06)"/>
          <path class="cls-3" d="M7255.71,7127.26a.86.86,0,0,1-.94-.95h0a1.21,1.21,0,0,1,1.08-1.09l.61,0a.86.86,0,0,1,.94.95h0a1.21,1.21,0,0,1-1.09,1.09Z" transform="translate(-7082.24 -7094.06)"/>
          <path class="cls-3" d="M7254,7129.16a1,1,0,0,1,.1-1.44h0a1,1,0,0,1,1.44-.1l.4.4a1,1,0,0,1-.1,1.44h0a1,1,0,0,1-1.44.1Z" transform="translate(-7082.24 -7094.06)"/>
          <path class="cls-3" d="M7251.6,7129.48a1.21,1.21,0,0,1,1.09-1.09h0a.87.87,0,0,1,1,.94l-.05.61a1.2,1.2,0,0,1-1.08,1.08h0a.86.86,0,0,1-.95-.94Z" transform="translate(-7082.24 -7094.06)"/>
          <path class="cls-3" d="M7249.92,7128a1,1,0,0,1,1.44-.1h0a1,1,0,0,1-.1,1.44l-.46.46a1,1,0,0,1-1.44.1h0a1,1,0,0,1,.1-1.44Z" transform="translate(-7082.24 -7094.06)"/>
          <path class="cls-3" d="M7249.93,7125.63a.86.86,0,0,1,.95.95h0a1.21,1.21,0,0,1-1.09,1.09l-.6,0a.86.86,0,0,1-.94-.95h0a1.18,1.18,0,0,1,1.08-1.08Z" transform="translate(-7082.24 -7094.06)"/>
          <path class="cls-3" d="M7251.65,7123.73a1,1,0,0,1-.1,1.44h0a1,1,0,0,1-1.44.1l-.4-.4a1,1,0,0,1,.1-1.44h0a1,1,0,0,1,1.44-.1Z" transform="translate(-7082.24 -7094.06)"/>
          <path class="cls-3" d="M7254.05,7123.41a1.21,1.21,0,0,1-1.09,1.09h0a.86.86,0,0,1-.95-.94l0-.61a1.21,1.21,0,0,1,1.09-1.08h0a.86.86,0,0,1,.95.94Z" transform="translate(-7082.24 -7094.06)"/>
        </g>
        <path class="cls-4" d="M7256.08,7125.71l0-.24-.06-.26h0a3.12,3.12,0,0,0-.15-.43,2.88,2.88,0,0,0-.55-.79l-.13-.12-.06,0a2.21,2.21,0,0,0-.45-.3l-.15-.08a3.26,3.26,0,0,0-.44-.15,3.15,3.15,0,0,0-1.4,0,3.58,3.58,0,0,0-.64.18,3,3,0,0,0-.37.17l-.1.05a3.85,3.85,0,0,0-.87.66,4.1,4.1,0,0,0-.56.7,1.62,1.62,0,0,0-.1.18,3.21,3.21,0,0,0-.22.46,4,4,0,0,0-.15.49,3.13,3.13,0,0,0,0,1.55,2.3,2.3,0,0,0,.14.42s0,0,0,0a2.9,2.9,0,0,0,.38.6,1.54,1.54,0,0,0,.17.19,2.51,2.51,0,0,0,.71.51l.08,0a3.26,3.26,0,0,0,.44.15l.31.07c.11,0,.21,0,.32,0a3.38,3.38,0,0,0,.45,0,3.73,3.73,0,0,0,1-.23,2.77,2.77,0,0,0,.46-.22.05.05,0,0,0,0,0l.23-.14a4,4,0,0,0,1.24-1.32l0-.05.11-.21c0-.09.08-.17.11-.26A3.47,3.47,0,0,0,7256.08,7125.71Zm-2.52,1.47a1.22,1.22,0,0,1-1.11.36,1.15,1.15,0,0,1,.23-1.44,1.24,1.24,0,0,1,1.11-.36A1.17,1.17,0,0,1,7253.56,7127.18Z" transform="translate(-7082.24 -7094.06)"/>
        <path class="cls-5" d="M7255.67,7125.6a1.67,1.67,0,0,0-.08-.32.9.9,0,0,0-.08-.23,2.2,2.2,0,0,0-.51-.78l-.08-.07-.09-.08h0l-.22-.16a1.79,1.79,0,0,0-.39-.2,1.57,1.57,0,0,0-.23-.09,3.15,3.15,0,0,0-.42-.09,3,3,0,0,0-.95,0,4.06,4.06,0,0,0-.59.19l-.07,0-.17.08a3.46,3.46,0,0,0-.86.63,3.79,3.79,0,0,0-.58.77.41.41,0,0,1-.05.09,2.56,2.56,0,0,0-.11.24,2,2,0,0,0-.14.41,2.76,2.76,0,0,0,0,1.56c0,.07.05.15.08.22l.11.23v0a1.85,1.85,0,0,0,.23.34,1.54,1.54,0,0,0,.17.19,2.39,2.39,0,0,0,.67.47l.11,0a2,2,0,0,0,.22.09,2.6,2.6,0,0,0,.47.09l.26,0a3.05,3.05,0,0,0,1.24-.25l.24-.11,0,0a3,3,0,0,0,.5-.32l.33-.29a3.35,3.35,0,0,0,.42-.51,4.05,4.05,0,0,0,.21-.35,2.56,2.56,0,0,0,.11-.24s0,0,0,0a2.93,2.93,0,0,0,.23-1.26A2.19,2.19,0,0,0,7255.67,7125.6Zm-3,.5a1.24,1.24,0,0,1,1.11-.36,1.17,1.17,0,0,1-.23,1.44,1.22,1.22,0,0,1-1.11.36A1.15,1.15,0,0,1,7252.68,7126.1Z" transform="translate(-7082.24 -7094.06)"/>
        <path class="cls-6" d="M7254.26,7126h0a1.27,1.27,0,0,0-.26-.55.34.34,0,0,0-.08-.09,1.33,1.33,0,0,0-1.5-.23,1.67,1.67,0,0,0-.55.37,1.85,1.85,0,0,0-.3.39,1.5,1.5,0,0,0-.19.61,1.3,1.3,0,0,0,.07.62,1.11,1.11,0,0,0,.28.43,1,1,0,0,0,.5.3,1.37,1.37,0,0,0,.64,0,1.66,1.66,0,0,0,.91-.48A1.64,1.64,0,0,0,7254.26,7126Zm-.7,1.19a1.22,1.22,0,0,1-1.11.36,1.15,1.15,0,0,1,.23-1.44,1.24,1.24,0,0,1,1.11-.36A1.17,1.17,0,0,1,7253.56,7127.18Z" transform="translate(-7082.24 -7094.06)"/>
        <path class="cls-7" d="M7253.79,7125.74a1.24,1.24,0,0,0-1.11.36,1.15,1.15,0,0,0-.23,1.44.81.81,0,0,1-.47-.25h0a1.12,1.12,0,0,1,.11-1.58,1.18,1.18,0,0,1,1.28-.31,1,1,0,0,1,.3.2A.81.81,0,0,1,7253.79,7125.74Z" transform="translate(-7082.24 -7094.06)"/>
      </g>
    </g>
    <g>
      <g>
        <g>
          <path class="cls-8" d="M7252.69,7133.57a.69.69,0,0,1-1,.07h0a.69.69,0,0,1,.07-1l.3-.3a.69.69,0,0,1,1-.07h0a.69.69,0,0,1-.07,1Z" transform="translate(-7082.24 -7094.06)"/>
          <path class="cls-8" d="M7252.67,7135.18a.58.58,0,0,1-.63-.64h0a.79.79,0,0,1,.73-.73l.41,0a.58.58,0,0,1,.63.64h0a.81.81,0,0,1-.73.73Z" transform="translate(-7082.24 -7094.06)"/>
          <path class="cls-8" d="M7251.52,7136.46a.69.69,0,0,1,.07-1h0a.71.71,0,0,1,1-.07l.27.27a.71.71,0,0,1-.07,1h0a.69.69,0,0,1-1,.07Z" transform="translate(-7082.24 -7094.06)"/>
          <path class="cls-8" d="M7249.91,7136.67a.8.8,0,0,1,.73-.73h0a.58.58,0,0,1,.64.64l0,.4a.81.81,0,0,1-.74.73h0a.57.57,0,0,1-.63-.63Z" transform="translate(-7082.24 -7094.06)"/>
          <path class="cls-8" d="M7248.77,7135.69a.69.69,0,0,1,1-.07h0a.69.69,0,0,1-.07,1l-.3.3a.69.69,0,0,1-1,.07h0a.7.7,0,0,1,.06-1Z" transform="translate(-7082.24 -7094.06)"/>
          <path class="cls-8" d="M7248.78,7134.08a.58.58,0,0,1,.64.64h0a.8.8,0,0,1-.73.73l-.41,0a.57.57,0,0,1-.63-.64h0a.81.81,0,0,1,.73-.73Z" transform="translate(-7082.24 -7094.06)"/>
          <path class="cls-8" d="M7249.94,7132.8a.71.71,0,0,1-.07,1h0a.69.69,0,0,1-1,.07l-.27-.27a.69.69,0,0,1,.07-1h0a.69.69,0,0,1,1-.07Z" transform="translate(-7082.24 -7094.06)"/>
          <path class="cls-8" d="M7251.55,7132.59a.79.79,0,0,1-.73.73h0a.58.58,0,0,1-.64-.64l0-.4a.8.8,0,0,1,.73-.73h0a.58.58,0,0,1,.64.63Z" transform="translate(-7082.24 -7094.06)"/>
          <path class="cls-8" d="M7252.86,7133.8a1.33,1.33,0,0,0-.1-.28v0a1.72,1.72,0,0,0-.26-.4.69.69,0,0,0-.11-.13,1.75,1.75,0,0,0-.48-.34l-.05,0a1.76,1.76,0,0,0-.3-.1l-.21-.05-.21,0h-.31a2.48,2.48,0,0,0-.64.15,2.3,2.3,0,0,0-.32.15h0l-.15.1a2.24,2.24,0,0,0-.42.34,2.51,2.51,0,0,0-.42.55.05.05,0,0,0,0,0,.83.83,0,0,0-.07.13,1.42,1.42,0,0,0-.08.18,2.35,2.35,0,0,0-.15,1,1,1,0,0,0,0,.16,1.36,1.36,0,0,0,0,.17h0a1.66,1.66,0,0,0,.1.29,1.88,1.88,0,0,0,.37.53.6.6,0,0,0,.08.08l0,0a3.28,3.28,0,0,0,.31.2l.1.05a1.76,1.76,0,0,0,.3.1,2.29,2.29,0,0,0,1.37-.09l.25-.11.06,0a2.75,2.75,0,0,0,.59-.44,2.7,2.7,0,0,0,.38-.47l.07-.12a2.3,2.3,0,0,0,.15-.32c0-.11.07-.21.1-.32A2.19,2.19,0,0,0,7252.86,7133.8Zm-2.63.33a.85.85,0,0,1,.75-.24.78.78,0,0,1-.15,1,.82.82,0,0,1-.75.25A.79.79,0,0,1,7250.23,7134.13Z" transform="translate(-7082.24 -7094.06)"/>
          <path class="cls-8" d="M7252.6,7133.84l-.06-.15a1,1,0,0,0-.07-.15h0a1.58,1.58,0,0,0-.15-.24l-.12-.12a1.42,1.42,0,0,0-.45-.32l-.07,0-.15-.06a1.8,1.8,0,0,0-.32-.06H7251a2.09,2.09,0,0,0-.84.16l-.16.08h0a2.37,2.37,0,0,0-.33.22,1.37,1.37,0,0,0-.22.2,1.87,1.87,0,0,0-.29.34,1.76,1.76,0,0,0-.14.23l-.08.16v0a2,2,0,0,0-.16.85,1.94,1.94,0,0,0,0,.24,1.74,1.74,0,0,0,0,.22l.06.15a1.6,1.6,0,0,0,.34.53l.06,0,.06.05h0l.14.11a1.66,1.66,0,0,0,.27.13l.15.06a1.36,1.36,0,0,0,.29.06,2.22,2.22,0,0,0,.63,0,3.17,3.17,0,0,0,.41-.12l0,0,.12-.05a2.54,2.54,0,0,0,.57-.42,2.36,2.36,0,0,0,.39-.52l0-.06.07-.16c0-.09.07-.19.1-.28A1.87,1.87,0,0,0,7252.6,7133.84Zm-2.37.29a.85.85,0,0,1,.75-.24.78.78,0,0,1-.15,1,.82.82,0,0,1-.75.25A.79.79,0,0,1,7250.23,7134.13Z" transform="translate(-7082.24 -7094.06)"/>
          <path class="cls-8" d="M7251.65,7134.18a.79.79,0,0,0-.18-.29.75.75,0,0,0-.34-.2,1,1,0,0,0-.43,0,1.12,1.12,0,0,0-.61.33,1.06,1.06,0,0,0-.33.95,1,1,0,0,0,.17.37l.06.06a.89.89,0,0,0,1,.15,1.21,1.21,0,0,0,.57-.51,1,1,0,0,0,.13-.41A.86.86,0,0,0,7251.65,7134.18Zm-1.42-.05a.85.85,0,0,1,.75-.24.78.78,0,0,1-.15,1,.82.82,0,0,1-.75.25A.79.79,0,0,1,7250.23,7134.13Z" transform="translate(-7082.24 -7094.06)"/>
          <path class="cls-8" d="M7251.22,7135.13a.79.79,0,0,1-.86.2.63.63,0,0,1-.2-.13l-.08-.09a.82.82,0,0,0,.75-.25.78.78,0,0,0,.15-1,.59.59,0,0,1,.32.17h0A.76.76,0,0,1,7251.22,7135.13Z" transform="translate(-7082.24 -7094.06)"/>
        </g>
        <path class="cls-8" d="M7249.52,7132.43l-.34-.23s-.1,0,0,.17S7249.52,7132.43,7249.52,7132.43Z" transform="translate(-7082.24 -7094.06)"/>
        <path class="cls-8" d="M7251.25,7131.6l-.36-.24a.16.16,0,0,0,0,.24c.13.15.17.21.26.17A.19.19,0,0,0,7251.25,7131.6Z" transform="translate(-7082.24 -7094.06)"/>
        <path class="cls-8" d="M7253,7132.22l-.38-.26s-.16,0,0,.24.25.24.31.19A.23.23,0,0,0,7253,7132.22Z" transform="translate(-7082.24 -7094.06)"/>
        <path class="cls-8" d="M7253.56,7133.87l-.41-.27s-.14,0,0,.23.33.28.38.25S7253.56,7133.87,7253.56,7133.87Z" transform="translate(-7082.24 -7094.06)"/>
        <path class="cls-8" d="M7251.51,7136.55l.39.26s.08,0,.06-.09a.39.39,0,0,0-.2-.29C7251.62,7136.37,7251.51,7136.55,7251.51,7136.55Z" transform="translate(-7082.24 -7094.06)"/>
        <path class="cls-8" d="M7250.28,7137.56l-.07.1-.49-.32s-.12-.18.16-.17S7250.28,7137.56,7250.28,7137.56Z" transform="translate(-7082.24 -7094.06)"/>
        <path class="cls-8" d="M7248.46,7137l-.46-.32.53-.46s.32.41.26.53-.33.25-.33.25" transform="translate(-7082.24 -7094.06)"/>
        <path class="cls-8" d="M7247.9,7135.38l-.39-.26.45-.51s.32.41.26.52-.32.25-.32.25" transform="translate(-7082.24 -7094.06)"/>
      </g>
      <g>
        <g>
          <path class="cls-9" d="M7252.29,7133.31a.69.69,0,0,1-1,.07h0a.69.69,0,0,1,.07-1l.31-.31a.69.69,0,0,1,1-.07h0a.7.7,0,0,1-.06,1Z" transform="translate(-7082.24 -7094.06)"/>
          <path class="cls-9" d="M7252.28,7134.91a.58.58,0,0,1-.64-.64h0a.83.83,0,0,1,.73-.73l.41,0a.59.59,0,0,1,.64.64h0a.81.81,0,0,1-.74.73Z" transform="translate(-7082.24 -7094.06)"/>
          <path class="cls-9" d="M7251.13,7136.2a.7.7,0,0,1,.06-1h0a.69.69,0,0,1,1-.07l.27.27a.68.68,0,0,1-.07,1h0a.69.69,0,0,1-1,.07Z" transform="translate(-7082.24 -7094.06)"/>
          <path class="cls-9" d="M7249.51,7136.41a.82.82,0,0,1,.73-.74h0a.58.58,0,0,1,.64.64l0,.41a.82.82,0,0,1-.73.73h0a.58.58,0,0,1-.64-.64Z" transform="translate(-7082.24 -7094.06)"/>
          <path class="cls-9" d="M7248.37,7135.42a.7.7,0,0,1,1-.06h0a.68.68,0,0,1-.06,1l-.31.31a.69.69,0,0,1-1,.07h0a.69.69,0,0,1,.07-1Z" transform="translate(-7082.24 -7094.06)"/>
          <path class="cls-9" d="M7248.39,7133.82a.58.58,0,0,1,.63.64h0a.81.81,0,0,1-.73.73l-.4,0a.58.58,0,0,1-.64-.64h0a.8.8,0,0,1,.73-.73Z" transform="translate(-7082.24 -7094.06)"/>
          <path class="cls-9" d="M7249.54,7132.54a.68.68,0,0,1-.07,1h0a.69.69,0,0,1-1,.07l-.26-.26a.7.7,0,0,1,.06-1h0a.69.69,0,0,1,1-.07Z" transform="translate(-7082.24 -7094.06)"/>
          <path class="cls-9" d="M7251.16,7132.32a.83.83,0,0,1-.74.74h0a.58.58,0,0,1-.63-.64l0-.41a.83.83,0,0,1,.74-.73h0a.58.58,0,0,1,.63.64Z" transform="translate(-7082.24 -7094.06)"/>
        </g>
        <path class="cls-10" d="M7252.53,7133.87l0-.16,0-.17h0a1.42,1.42,0,0,0-.1-.29,1.64,1.64,0,0,0-.37-.53.3.3,0,0,0-.08-.08l0,0a2.61,2.61,0,0,0-.3-.2l-.11-.05a1.82,1.82,0,0,0-.3-.11,2.12,2.12,0,0,0-.94,0,2.35,2.35,0,0,0-.43.13l-.25.11-.06,0a2.45,2.45,0,0,0-.59.44,2.8,2.8,0,0,0-.38.47l-.07.12a3.13,3.13,0,0,0-.15.32,3,3,0,0,0-.1.32,2.19,2.19,0,0,0,0,1.05,1.57,1.57,0,0,0,.1.28h0a1.59,1.59,0,0,0,.26.41l.11.13a2.21,2.21,0,0,0,.48.34l.05,0,.3.1.21,0,.21,0h.31a2.08,2.08,0,0,0,.64-.16l.32-.14,0,0,.15-.09a2.72,2.72,0,0,0,.42-.34,2.68,2.68,0,0,0,.42-.55.08.08,0,0,0,0,0s.05-.09.08-.14.05-.11.07-.17A2.38,2.38,0,0,0,7252.53,7133.87Zm-1.7,1a.82.82,0,0,1-.75.25.79.79,0,0,1,.15-1,.85.85,0,0,1,.75-.24A.78.78,0,0,1,7250.83,7134.86Z" transform="translate(-7082.24 -7094.06)"/>
        <path class="cls-11" d="M7252.25,7133.8a1.42,1.42,0,0,0-.05-.22.94.94,0,0,0-.06-.15,1.42,1.42,0,0,0-.34-.53l-.06,0-.06-.05h0l-.14-.11a2.29,2.29,0,0,0-.27-.14l-.15-.05a1.36,1.36,0,0,0-.29-.06,1.67,1.67,0,0,0-.63,0,1.85,1.85,0,0,0-.4.12l-.05,0-.11.06a2.28,2.28,0,0,0-1,.94l0,.06-.07.16a2.31,2.31,0,0,0-.1.28,1.93,1.93,0,0,0,0,1,.75.75,0,0,0,.05.16l.07.15h0a1.82,1.82,0,0,0,.15.23l.12.13a1.6,1.6,0,0,0,.45.32l.07,0,.15,0a1.83,1.83,0,0,0,.32.07h.17a2.07,2.07,0,0,0,.84-.17l.16-.08h0a2.7,2.7,0,0,0,.33-.22l.23-.2a2.2,2.2,0,0,0,.28-.34c0-.08.1-.16.14-.24s.05-.1.08-.16h0a2,2,0,0,0,.16-.85A1.94,1.94,0,0,0,7252.25,7133.8Zm-2,.33a.85.85,0,0,1,.75-.24.78.78,0,0,1-.15,1,.82.82,0,0,1-.75.25A.79.79,0,0,1,7250.23,7134.13Z" transform="translate(-7082.24 -7094.06)"/>
        <path class="cls-10" d="M7251.3,7134.06h0a.79.79,0,0,0-.17-.37s0,0-.06-.06a.91.91,0,0,0-1-.16,1.27,1.27,0,0,0-.37.25,1.21,1.21,0,0,0-.2.26,1.13,1.13,0,0,0-.13.42.82.82,0,0,0,.05.41.92.92,0,0,0,.18.3,1,1,0,0,0,.34.2.89.89,0,0,0,.43,0,1.1,1.1,0,0,0,.62-.32A1.08,1.08,0,0,0,7251.3,7134.06Zm-.47.8a.82.82,0,0,1-.75.25.79.79,0,0,1,.15-1,.85.85,0,0,1,.75-.24A.78.78,0,0,1,7250.83,7134.86Z" transform="translate(-7082.24 -7094.06)"/>
        <path class="cls-8" d="M7251,7133.89a.85.85,0,0,0-.75.24.79.79,0,0,0-.15,1,.67.67,0,0,1-.32-.17h0a.76.76,0,0,1,.08-1.07.8.8,0,0,1,.86-.21.56.56,0,0,1,.2.14A.34.34,0,0,1,7251,7133.89Z" transform="translate(-7082.24 -7094.06)"/>
      </g>
    </g>
    <g>
      <g>
        <g>
          <path class="cls-12" d="M7247,7127.89a1.19,1.19,0,0,1-1.67.11h0a1.18,1.18,0,0,1,.11-1.66l.53-.53a1.19,1.19,0,0,1,1.67-.12h0a1.18,1.18,0,0,1-.12,1.67Z" transform="translate(-7082.24 -7094.06)"/>
          <path class="cls-12" d="M7247,7130.65a1,1,0,0,1-1.1-1.1h0a1.39,1.39,0,0,1,1.26-1.26l.7-.05a1,1,0,0,1,1.09,1.1h0a1.4,1.4,0,0,1-1.26,1.26Z" transform="translate(-7082.24 -7094.06)"/>
          <path class="cls-12" d="M7245,7132.86a1.19,1.19,0,0,1,.12-1.67h0a1.2,1.2,0,0,1,1.67-.12l.45.46a1.19,1.19,0,0,1-.11,1.67h0a1.2,1.2,0,0,1-1.67.12Z" transform="translate(-7082.24 -7094.06)"/>
          <path class="cls-12" d="M7242.19,7133.22a1.39,1.39,0,0,1,1.26-1.26h0a1,1,0,0,1,1.1,1.1l-.05.69a1.41,1.41,0,0,1-1.26,1.27h0a1,1,0,0,1-1.1-1.1Z" transform="translate(-7082.24 -7094.06)"/>
          <path class="cls-12" d="M7240.23,7131.53a1.18,1.18,0,0,1,1.67-.12h0a1.19,1.19,0,0,1-.11,1.67l-.53.53a1.19,1.19,0,0,1-1.67.11h0a1.18,1.18,0,0,1,.12-1.67Z" transform="translate(-7082.24 -7094.06)"/>
          <path class="cls-12" d="M7240.25,7128.77a1,1,0,0,1,1.1,1.09h0a1.39,1.39,0,0,1-1.26,1.26l-.7.05a1,1,0,0,1-1.09-1.09h0a1.4,1.4,0,0,1,1.26-1.27Z" transform="translate(-7082.24 -7094.06)"/>
          <path class="cls-12" d="M7242.24,7126.56a1.18,1.18,0,0,1-.12,1.66h0a1.17,1.17,0,0,1-1.66.12l-.46-.46a1.19,1.19,0,0,1,.11-1.67h0a1.19,1.19,0,0,1,1.67-.11Z" transform="translate(-7082.24 -7094.06)"/>
          <path class="cls-12" d="M7245,7126.19a1.39,1.39,0,0,1-1.26,1.26h0a1,1,0,0,1-1.1-1.09l.05-.7a1.4,1.4,0,0,1,1.26-1.26h0a1,1,0,0,1,1.1,1.09Z" transform="translate(-7082.24 -7094.06)"/>
          <path class="cls-12" d="M7247.28,7128.28a3.53,3.53,0,0,0-.17-.49,0,0,0,0,1,0,0,3.43,3.43,0,0,0-.44-.7l-.19-.21a2.84,2.84,0,0,0-.84-.59l-.08-.05a4.56,4.56,0,0,0-.52-.18l-.36-.07-.36,0a4.73,4.73,0,0,0-.53,0,4.49,4.49,0,0,0-1.11.27,4.34,4.34,0,0,0-.54.25l0,0-.27.17a4.29,4.29,0,0,0-.71.58,4.38,4.38,0,0,0-.73.95.16.16,0,0,0,0,.07,1.67,1.67,0,0,0-.12.23c0,.1-.09.21-.13.31a4,4,0,0,0-.27,1.78,2.51,2.51,0,0,0,0,.27c0,.1,0,.2.06.3s0,0,0,0a3,3,0,0,0,.17.5,3.18,3.18,0,0,0,.64.92l.14.13.07.06a3,3,0,0,0,.52.35l.18.09a3.2,3.2,0,0,0,.52.18,3.68,3.68,0,0,0,1.62.05,5.13,5.13,0,0,0,.74-.21,4,4,0,0,0,.42-.2.67.67,0,0,0,.12-.06,4.54,4.54,0,0,0,1-.76,5.37,5.37,0,0,0,.65-.81l.12-.21a4.34,4.34,0,0,0,.25-.54,4,4,0,0,0,.18-.56A3.77,3.77,0,0,0,7247.28,7128.28Zm-4.53.57a1.46,1.46,0,0,1,1.29-.42,1.37,1.37,0,0,1-.26,1.68,1.46,1.46,0,0,1-1.29.42A1.35,1.35,0,0,1,7242.75,7128.85Z" transform="translate(-7082.24 -7094.06)"/>
          <path class="cls-12" d="M7246.82,7128.35a2,2,0,0,0-.1-.26,1.59,1.59,0,0,0-.12-.27h0a1.76,1.76,0,0,0-.27-.4l-.19-.23a3,3,0,0,0-.78-.54l-.12-.05-.27-.1a3.23,3.23,0,0,0-.54-.11l-.3,0a3.67,3.67,0,0,0-1.44.29l-.27.13,0,0a3.4,3.4,0,0,0-.58.38,3.9,3.9,0,0,0-.38.33,4.43,4.43,0,0,0-.48.59,2.5,2.5,0,0,0-.25.41c-.05.09-.09.18-.13.27s0,0,0,0a3.58,3.58,0,0,0-.28,1.46c0,.14,0,.28,0,.41a2.34,2.34,0,0,0,.09.38c0,.09.06.18.1.27a2.65,2.65,0,0,0,.59.9l.09.09.11.09h0l.25.18a3.33,3.33,0,0,0,.46.24l.26.09a2.78,2.78,0,0,0,.5.11,3.46,3.46,0,0,0,1.78-.27l.08,0,.2-.1a4,4,0,0,0,1-.73,4,4,0,0,0,.67-.88l.06-.11c.05-.09.09-.19.13-.28a4.59,4.59,0,0,0,.17-.48A3.33,3.33,0,0,0,7246.82,7128.35Zm-4.07.5a1.46,1.46,0,0,1,1.29-.42,1.37,1.37,0,0,1-.26,1.68,1.46,1.46,0,0,1-1.29.42A1.35,1.35,0,0,1,7242.75,7128.85Z" transform="translate(-7082.24 -7094.06)"/>
          <path class="cls-12" d="M7245.2,7128.93a1.58,1.58,0,0,0-.32-.5,1.54,1.54,0,0,0-.59-.35,1.63,1.63,0,0,0-.73,0,1.9,1.9,0,0,0-1.06.56,1.86,1.86,0,0,0-.56,1.64,1.47,1.47,0,0,0,.3.63.48.48,0,0,0,.09.11,1.58,1.58,0,0,0,1.75.27,2,2,0,0,0,.63-.43,1.66,1.66,0,0,0,.34-.46,1.7,1.7,0,0,0,.23-.7A1.63,1.63,0,0,0,7245.2,7128.93Zm-2.45-.08a1.46,1.46,0,0,1,1.29-.42,1.37,1.37,0,0,1-.26,1.68,1.46,1.46,0,0,1-1.29.42A1.35,1.35,0,0,1,7242.75,7128.85Z" transform="translate(-7082.24 -7094.06)"/>
          <path class="cls-12" d="M7244.46,7130.56a1.4,1.4,0,0,1-1.49.36,1,1,0,0,1-.35-.23,1.83,1.83,0,0,1-.13-.16,1.46,1.46,0,0,0,1.29-.42,1.37,1.37,0,0,0,.26-1.68,1.06,1.06,0,0,1,.54.29h0A1.3,1.3,0,0,1,7244.46,7130.56Z" transform="translate(-7082.24 -7094.06)"/>
        </g>
        <path class="cls-12" d="M7241.53,7125.92l-.59-.4s-.17,0,0,.29S7241.53,7125.92,7241.53,7125.92Z" transform="translate(-7082.24 -7094.06)"/>
        <path class="cls-12" d="M7244.51,7124.49l-.62-.42a.28.28,0,0,0,0,.42c.21.25.29.36.45.29A.35.35,0,0,0,7244.51,7124.49Z" transform="translate(-7082.24 -7094.06)"/>
        <path class="cls-12" d="M7247.44,7125.55l-.66-.44s-.28.06,0,.4.42.42.53.34S7247.44,7125.55,7247.44,7125.55Z" transform="translate(-7082.24 -7094.06)"/>
        <path class="cls-12" d="M7248.48,7128.41l-.7-.47s-.25.06,0,.4.56.47.65.42S7248.48,7128.41,7248.48,7128.41Z" transform="translate(-7082.24 -7094.06)"/>
        <path class="cls-12" d="M7245,7133l.67.44s.15,0,.1-.16a.66.66,0,0,0-.34-.5C7245.14,7132.69,7245,7133,7245,7133Z" transform="translate(-7082.24 -7094.06)"/>
        <path class="cls-12" d="M7242.83,7134.76l-.13.16-.83-.54s-.21-.31.27-.31S7242.83,7134.76,7242.83,7134.76Z" transform="translate(-7082.24 -7094.06)"/>
        <path class="cls-12" d="M7239.71,7133.82l-.8-.55.91-.79s.55.7.44.91-.55.43-.55.43" transform="translate(-7082.24 -7094.06)"/>
        <path class="cls-12" d="M7238.73,7131l-.67-.45.78-.89s.55.7.45.91a1.74,1.74,0,0,1-.56.43" transform="translate(-7082.24 -7094.06)"/>
      </g>
      <g>
        <g>
          <path class="cls-13" d="M7246.29,7127.43a1.18,1.18,0,0,1-1.66.12h0a1.19,1.19,0,0,1,.11-1.67l.53-.53a1.19,1.19,0,0,1,1.67-.11h0a1.18,1.18,0,0,1-.12,1.66Z" transform="translate(-7082.24 -7094.06)"/>
          <path class="cls-13" d="M7246.27,7130.19a1,1,0,0,1-1.09-1.09h0a1.4,1.4,0,0,1,1.26-1.27l.69,0a1,1,0,0,1,1.1,1.09h0a1.39,1.39,0,0,1-1.26,1.26Z" transform="translate(-7082.24 -7094.06)"/>
          <path class="cls-13" d="M7244.29,7132.4a1.18,1.18,0,0,1,.12-1.67h0a1.18,1.18,0,0,1,1.66-.11l.46.46a1.19,1.19,0,0,1-.11,1.67h0a1.19,1.19,0,0,1-1.67.11Z" transform="translate(-7082.24 -7094.06)"/>
          <path class="cls-13" d="M7241.51,7132.77a1.39,1.39,0,0,1,1.26-1.27h0a1,1,0,0,1,1.09,1.1l0,.7a1.4,1.4,0,0,1-1.27,1.26h0a1,1,0,0,1-1.09-1.1Z" transform="translate(-7082.24 -7094.06)"/>
          <path class="cls-13" d="M7239.55,7131.07a1.19,1.19,0,0,1,1.67-.11h0a1.17,1.17,0,0,1-.12,1.66l-.52.53a1.2,1.2,0,0,1-1.67.12h0a1.19,1.19,0,0,1,.11-1.67Z" transform="translate(-7082.24 -7094.06)"/>
          <path class="cls-13" d="M7239.57,7128.31a1,1,0,0,1,1.1,1.1h0a1.41,1.41,0,0,1-1.26,1.26l-.7.05a1,1,0,0,1-1.1-1.1h0a1.4,1.4,0,0,1,1.26-1.26Z" transform="translate(-7082.24 -7094.06)"/>
          <path class="cls-13" d="M7241.56,7126.1a1.2,1.2,0,0,1-.12,1.67h0a1.19,1.19,0,0,1-1.67.11l-.46-.45a1.19,1.19,0,0,1,.12-1.67h0a1.19,1.19,0,0,1,1.67-.12Z" transform="translate(-7082.24 -7094.06)"/>
          <path class="cls-13" d="M7244.34,7125.74a1.41,1.41,0,0,1-1.26,1.26h0a1,1,0,0,1-1.1-1.1l.05-.7a1.41,1.41,0,0,1,1.26-1.26h0a1,1,0,0,1,1.1,1.1Z" transform="translate(-7082.24 -7094.06)"/>
        </g>
        <path class="cls-14" d="M7246.7,7128.4a2.36,2.36,0,0,0,0-.28c0-.1,0-.2-.06-.3h0a3,3,0,0,0-.17-.5,3.24,3.24,0,0,0-.64-.92.93.93,0,0,0-.15-.13l-.06-.07a3.31,3.31,0,0,0-.52-.34l-.18-.09a2.47,2.47,0,0,0-.52-.18,3.68,3.68,0,0,0-1.62-.05,4.79,4.79,0,0,0-.74.21c-.14.06-.28.12-.43.2l-.11.06a4.54,4.54,0,0,0-1,.76,4.81,4.81,0,0,0-.65.81,2.25,2.25,0,0,0-.12.21,4.43,4.43,0,0,0-.26.54,4,4,0,0,0-.17.56,3.77,3.77,0,0,0,0,1.8,2.84,2.84,0,0,0,.17.49s0,0,0,0a2.84,2.84,0,0,0,.44.7,2,2,0,0,0,.19.22,3.15,3.15,0,0,0,.83.59l.09.05a5.17,5.17,0,0,0,.51.18l.37.07.36,0a4.73,4.73,0,0,0,.53,0,4.32,4.32,0,0,0,1.1-.27,3.32,3.32,0,0,0,.54-.25l0,0,.27-.16a4.29,4.29,0,0,0,.71-.58,4.38,4.38,0,0,0,.73-.95l0-.06.12-.24c.05-.1.09-.21.13-.31A4,4,0,0,0,7246.7,7128.4Zm-2.92,1.71a1.46,1.46,0,0,1-1.29.42,1.35,1.35,0,0,1,.26-1.68,1.46,1.46,0,0,1,1.29-.42A1.37,1.37,0,0,1,7243.78,7130.11Z" transform="translate(-7082.24 -7094.06)"/>
        <path class="cls-15" d="M7246.22,7128.28c0-.13-.05-.26-.08-.39s-.06-.17-.1-.26a2.54,2.54,0,0,0-.6-.9l-.09-.09-.1-.09h0a2,2,0,0,0-.25-.18,2.25,2.25,0,0,0-.46-.24,1.14,1.14,0,0,0-.26-.09,2.78,2.78,0,0,0-.5-.11,3.36,3.36,0,0,0-1.09,0,4.54,4.54,0,0,0-.69.21l-.08,0-.2.1a3.78,3.78,0,0,0-1,.73,4,4,0,0,0-.67.88l-.06.11c-.05.09-.09.19-.13.28a3.75,3.75,0,0,0-.17.47,3.37,3.37,0,0,0,0,1.81,2.67,2.67,0,0,0,.09.26,2.1,2.1,0,0,0,.13.26v0a2.57,2.57,0,0,0,.26.41l.2.21a2.94,2.94,0,0,0,.77.55l.13.05.26.1a3.35,3.35,0,0,0,.55.11l.29,0a3.91,3.91,0,0,0,1.45-.29l.27-.13,0,0a4.24,4.24,0,0,0,1-.71,6.66,6.66,0,0,0,.49-.59,3.38,3.38,0,0,0,.24-.41,2.39,2.39,0,0,0,.13-.28,0,0,0,0,0,0,0,3.44,3.44,0,0,0,.27-1.46A1.84,1.84,0,0,0,7246.22,7128.28Zm-3.47.57a1.46,1.46,0,0,1,1.29-.42,1.37,1.37,0,0,1-.26,1.68,1.46,1.46,0,0,1-1.29.42A1.35,1.35,0,0,1,7242.75,7128.85Z" transform="translate(-7082.24 -7094.06)"/>
        <path class="cls-14" d="M7244.59,7128.73h0a1.43,1.43,0,0,0-.29-.64l-.09-.1a1.58,1.58,0,0,0-1.75-.27,2.06,2.06,0,0,0-.64.43,2.42,2.42,0,0,0-.34.45,2.11,2.11,0,0,0-.23.71,1.72,1.72,0,0,0,.09.72,1.37,1.37,0,0,0,.32.51,1.35,1.35,0,0,0,.59.34,1.63,1.63,0,0,0,.73.05,2,2,0,0,0,1.06-.56A1.89,1.89,0,0,0,7244.59,7128.73Zm-.81,1.38a1.46,1.46,0,0,1-1.29.42,1.35,1.35,0,0,1,.26-1.68,1.46,1.46,0,0,1,1.29-.42A1.37,1.37,0,0,1,7243.78,7130.11Z" transform="translate(-7082.24 -7094.06)"/>
        <path class="cls-16" d="M7244,7128.43a1.46,1.46,0,0,0-1.29.42,1.35,1.35,0,0,0-.26,1.68,1.22,1.22,0,0,1-.55-.29h0a1.3,1.3,0,0,1,.13-1.83,1.39,1.39,0,0,1,1.49-.36,1.08,1.08,0,0,1,.34.23A.7.7,0,0,1,7244,7128.43Z" transform="translate(-7082.24 -7094.06)"/>
      </g>
    </g>
    <g>
      <polygon class="cls-3" points="213.71 31.8 211.78 36.55 204.73 36.55 206.66 31.8 213.71 31.8"/>
      <polygon class="cls-17" points="213.71 31.8 209.22 34.17 206.66 31.8 213.71 31.8"/>
      <path class="cls-3" d="M7299.81,7126.06a.21.21,0,0,1-.21.21h-3.24a.2.2,0,0,1-.2-.21h0a.2.2,0,0,1,.2-.2h3.24a.2.2,0,0,1,.21.2Z" transform="translate(-7082.24 -7094.06)"/>
      <path class="cls-3" d="M7300.48,7127.58a.2.2,0,0,1-.21.2H7297a.2.2,0,0,1-.2-.2h0a.2.2,0,0,1,.2-.2h3.24a.2.2,0,0,1,.21.2Z" transform="translate(-7082.24 -7094.06)"/>
      <path class="cls-3" d="M7305.15,7127.58a.2.2,0,0,1-.2.2h-3.24a.21.21,0,0,1-.21-.2h0a.21.21,0,0,1,.21-.2H7305a.2.2,0,0,1,.2.2Z" transform="translate(-7082.24 -7094.06)"/>
      <path class="cls-3" d="M7298.65,7129.06a.2.2,0,0,1-.2.2h-3.24a.2.2,0,0,1-.2-.2h0a.2.2,0,0,1,.2-.2h3.24a.2.2,0,0,1,.2.2Z" transform="translate(-7082.24 -7094.06)"/>
      <path class="cls-3" d="M7303,7130.41a.21.21,0,0,1-.2.21h-3.24a.21.21,0,0,1-.2-.21h0a.2.2,0,0,1,.2-.2h3.24a.2.2,0,0,1,.2.2Z" transform="translate(-7082.24 -7094.06)"/>
    </g>
    <path class="cls-18" d="M7311.19,7191.21c0,1.69-18.36,3.06-41,3.06s-41-1.37-41-3.06,18.36-3.05,41-3.05S7311.19,7189.52,7311.19,7191.21Z" transform="translate(-7082.24 -7094.06)"/>
    <g>
      <path class="cls-19" d="M7244.81,7179.47a4.26,4.26,0,0,0,.67,3.29,4.32,4.32,0,0,0,3.31,1.3s.31-.13.18-.83a6.15,6.15,0,0,0-1.19-2.54A9.91,9.91,0,0,0,7244.81,7179.47Z" transform="translate(-7082.24 -7094.06)"/>
      <path class="cls-20" d="M7295.79,7146.17a3.2,3.2,0,0,1,2.57,1.5,3.57,3.57,0,0,1,.75,3s-.82.82-2.3-.42S7295.79,7146.17,7295.79,7146.17Z" transform="translate(-7082.24 -7094.06)"/>
      <polygon class="cls-21" points="182.67 89.17 189.81 89.17 193.24 96.08 186.44 95.89 182.67 89.17"/>
      <path class="cls-21" d="M7269.62,7191a1.06,1.06,0,0,1-1.45-.39l-5.39-9.36a1.08,1.08,0,0,1,.4-1.46h0a1.06,1.06,0,0,1,1.45.4l5.38,9.36a1.06,1.06,0,0,1-.39,1.45Z" transform="translate(-7082.24 -7094.06)"/>
      <path class="cls-21" d="M7276.66,7191a1.06,1.06,0,0,1-1.45-.39l-5.38-9.36a1.08,1.08,0,0,1,.39-1.46h0a1.06,1.06,0,0,1,1.45.4l5.39,9.36a1.06,1.06,0,0,1-.4,1.45Z" transform="translate(-7082.24 -7094.06)"/>
      <path class="cls-22" d="M7270.89,7190.15a1.06,1.06,0,0,1-1.07,1.06H7259a1.06,1.06,0,0,1-1.06-1.06h0a1.06,1.06,0,0,1,1.06-1.06h10.8a1.06,1.06,0,0,1,1.07,1.06Z" transform="translate(-7082.24 -7094.06)"/>
      <path class="cls-23" d="M7277.52,7190.15a1.05,1.05,0,0,1-1.06,1.06h-10.8a1.06,1.06,0,0,1-1.07-1.06h0a1.06,1.06,0,0,1,1.07-1.06h10.8a1.05,1.05,0,0,1,1.06,1.06Z" transform="translate(-7082.24 -7094.06)"/>
      <path class="cls-24" d="M7288.76,7181.42a3.26,3.26,0,0,1-2.8,2.64h-37.07a2.55,2.55,0,0,1-2.55-2.55l10.58-30.81a3.21,3.21,0,0,1,3-2.55h36.6c1.91,0,3,1,2.55,2.55Z" transform="translate(-7082.24 -7094.06)"/>
      <path class="cls-25" d="M7287.23,7179.38a3.26,3.26,0,0,1-2.8,2.64h-37.07a2.55,2.55,0,0,1-2.55-2.55l10.58-30.81a3.21,3.21,0,0,1,3-2.55H7295c1.91,0,3,1,2.55,2.55Z" transform="translate(-7082.24 -7094.06)"/>
      <path class="cls-26" d="M7286.48,7178.66a3.11,3.11,0,0,1-2.67,2.52h-35.33a2.43,2.43,0,0,1-2.43-2.43l10.08-29.37A3.06,3.06,0,0,1,7259,7147h34.89c1.81,0,2.86.91,2.43,2.43Z" transform="translate(-7082.24 -7094.06)"/>
    </g>
    <g>
      <g>
        <path class="cls-27" d="M7279.82,7135.56c-2.2,3.59-6.17,5.16-8.86,3.51l-.74-.45c-2.58-1.59-3-5.58-1.12-9.07.08-.14.16-.29.25-.43s.17-.28.27-.41c2.25-3.3,6-4.68,8.59-3.1l.74.45C7281.64,7127.72,7282,7132,7279.82,7135.56Z" transform="translate(-7082.24 -7094.06)"/>
        <path class="cls-14" d="M7279.09,7135.11c-2.11,3.42-5.82,5-8.49,3.71l-.38-.2c-2.58-1.59-3-5.58-1.12-9.07.08-.14.16-.29.25-.43s.17-.28.27-.41c2.25-3.3,6-4.68,8.59-3.1l.36.25C7280.93,7127.65,7281.19,7131.68,7279.09,7135.11Z" transform="translate(-7082.24 -7094.06)"/>
        <path class="cls-9" d="M7277.8,7134.32c-1.62,2.64-4.54,3.79-6.52,2.58s-2.27-4.35-.65-7,4.55-3.8,6.53-2.58S7279.42,7131.67,7277.8,7134.32Z" transform="translate(-7082.24 -7094.06)"/>
        <path class="cls-3" d="M7276.38,7133.44c-1,1.59-2.74,2.29-3.94,1.56s-1.36-2.62-.38-4.21,2.74-2.29,3.93-1.56S7277.36,7131.85,7276.38,7133.44Z" transform="translate(-7082.24 -7094.06)"/>
        <path class="cls-28" d="M7274.64,7132.37a.49.49,0,0,1-.68.16l-4.86-3c.08-.14.16-.29.25-.43s.17-.28.27-.41l4.86,3A.5.5,0,0,1,7274.64,7132.37Z" transform="translate(-7082.24 -7094.06)"/>
        <path class="cls-29" d="M7274.4,7132.57a.49.49,0,0,1-.64-.28l-3.17-8.15a.49.49,0,0,1,.92-.36l3.17,8.15A.49.49,0,0,1,7274.4,7132.57Z" transform="translate(-7082.24 -7094.06)"/>
        <polygon class="cls-14" points="189.31 30.96 188.22 28.34 188.81 27.44 189.85 29.94 189.31 30.96"/>
        <polygon class="cls-14" points="187.09 27.96 188.24 30.72 189.31 30.96 188.21 28.33 187.09 27.96"/>
      </g>
      <g>
        <polygon class="cls-30" points="152.78 46.91 147.92 52.92 145.64 55.73 145.4 52.92 145.35 52.33 145.26 51.32 146.48 49.97 152.78 46.91"/>
        <polygon class="cls-31" points="152.78 46.91 151.39 52.92 140.42 52.92 146.48 49.97 152.78 46.91"/>
        <polygon class="cls-32" points="145.64 55.73 144.54 52.92 152.78 46.91 146.22 52.92 145.64 55.73"/>
        <g>
          <path class="cls-33" d="M7226.78,7150.87a19.77,19.77,0,0,0-3.59,4.79" transform="translate(-7082.24 -7094.06)"/>
          <path class="cls-34" d="M7221.12,7166.49a16,16,0,0,0,.34,1.73c2.54,10.22,18.87,7.79,19.92-1.72s-9.14-9.84-12.54-4.49-2.73,13.81,6.65,18.43c4,2,9.06,1.58,13.5.48" transform="translate(-7082.24 -7094.06)"/>
          <path class="cls-33" d="M7254.33,7179.21a46.17,46.17,0,0,0,5.46-2.49" transform="translate(-7082.24 -7094.06)"/>
        </g>
      </g>
    </g>
    <g>
      <polygon class="cls-35" points="204.81 60.16 203.71 63.42 197.56 81.66 170.74 81.66 176.19 63.42 177.17 60.16 204.81 60.16"/>
      <polygon class="cls-9" points="204.81 60.16 203.71 63.42 176.19 63.42 177.17 60.16 204.81 60.16"/>
    </g>
    <g>
      <path class="cls-36" d="M7254.71,7174.07c-.2.51-.82,1.28-1.53,1.28h-7.72a1.28,1.28,0,0,1-1.28-1.28l2-5.6c.26-.78.57-1.28,1.28-1.28h8c.71,0,1.53.49,1.29,1.28Z" transform="translate(-7082.24 -7094.06)"/>
      <path class="cls-14" d="M7253,7172.13a2,2,0,0,1-1.54,1.28h-7.72a1.28,1.28,0,0,1-1.28-1.28l2.05-5.6c.27-.78.57-1.28,1.28-1.28h8c.71,0,1.52.49,1.28,1.28Z" transform="translate(-7082.24 -7094.06)"/>
    </g>
    <path class="cls-37" d="M7304.57,7143.87l-3.46,9.42a2.16,2.16,0,0,1-2.15,2.16h-19.14a2.16,2.16,0,0,1-2.16-2.16l3.45-9.42c.45-1.32,1-2.16,2.16-2.16h19.14C7303.6,7141.71,7305,7142.53,7304.57,7143.87Z" transform="translate(-7082.24 -7094.06)"/>
    <path class="cls-38" d="M7302.84,7142.14l-3.45,9.42a2.16,2.16,0,0,1-2.16,2.16h-19.14a2.16,2.16,0,0,1-2.16-2.16l3.45-9.42c.45-1.32,1-2.16,2.16-2.16h19.14C7301.87,7140,7303.24,7140.8,7302.84,7142.14Z" transform="translate(-7082.24 -7094.06)"/>
    <path class="cls-39" d="M7287.23,7139.78a7.39,7.39,0,0,0-4.41,1.62,8,8,0,0,0-2.79,3.93c-.91,3.06.84,5.54,3.9,5.54a7.39,7.39,0,0,0,4.4-1.62,8,8,0,0,0,2.79-3.92C7292,7142.26,7290.29,7139.78,7287.23,7139.78Zm-2.26,7.59a1.47,1.47,0,0,1-1.43-2,2.91,2.91,0,0,1,1-1.45,2.78,2.78,0,0,1,1.62-.59,1.47,1.47,0,0,1,1.44,2,3,3,0,0,1-1,1.44A2.72,2.72,0,0,1,7285,7147.37Z" transform="translate(-7082.24 -7094.06)"/>
    <path class="cls-9" d="M7286.58,7138.27a7.44,7.44,0,0,0-4.41,1.62,8,8,0,0,0-2.79,3.93c-.91,3.06.84,5.54,3.9,5.54a7.39,7.39,0,0,0,4.4-1.62,8,8,0,0,0,2.79-3.92C7291.38,7140.75,7289.64,7138.27,7286.58,7138.27Zm-2.26,7.59a1.47,1.47,0,0,1-1.43-2,2.93,2.93,0,0,1,1-1.45,2.69,2.69,0,0,1,1.62-.59,1.47,1.47,0,0,1,1.43,2,3,3,0,0,1-1,1.44A2.7,2.7,0,0,1,7284.32,7145.86Z" transform="translate(-7082.24 -7094.06)"/>
    <g class="cls-40">
      <path class="cls-41" d="M7300,7142.94a.39.39,0,0,1-.35.27h-1.32a.2.2,0,0,1-.19-.27l.4-1.32a.39.39,0,0,1,.35-.27h1.32a.2.2,0,0,1,.19.27Z" transform="translate(-7082.24 -7094.06)"/>
      <path class="cls-41" d="M7299.27,7145.25a.4.4,0,0,1-.35.27h-1.32a.19.19,0,0,1-.19-.27l.39-1.32a.39.39,0,0,1,.35-.27h1.32a.2.2,0,0,1,.19.27Z" transform="translate(-7082.24 -7094.06)"/>
      <path class="cls-41" d="M7298.58,7147.56a.39.39,0,0,1-.35.27h-1.32a.2.2,0,0,1-.19-.27l.39-1.32a.4.4,0,0,1,.35-.27h1.32a.19.19,0,0,1,.19.27Z" transform="translate(-7082.24 -7094.06)"/>
    </g>
    <g>
      <path class="cls-9" d="M7299.31,7140.35a.4.4,0,0,1-.35.27h-1.32a.19.19,0,0,1-.19-.27l.39-1.32a.39.39,0,0,1,.35-.27h1.32a.2.2,0,0,1,.19.27Z" transform="translate(-7082.24 -7094.06)"/>
      <path class="cls-3" d="M7298.62,7142.66a.39.39,0,0,1-.35.27H7297a.2.2,0,0,1-.19-.27l.39-1.32a.4.4,0,0,1,.35-.27h1.32a.19.19,0,0,1,.19.27Z" transform="translate(-7082.24 -7094.06)"/>
      <path class="cls-14" d="M7297.93,7145a.39.39,0,0,1-.35.27h-1.32a.2.2,0,0,1-.19-.27l.4-1.32a.39.39,0,0,1,.35-.27h1.32a.2.2,0,0,1,.19.27Z" transform="translate(-7082.24 -7094.06)"/>
    </g>
    <path class="cls-3" d="M7283.92,7142.37a2.93,2.93,0,0,0-1,1.45,1.47,1.47,0,0,0,1.43,2l-1,3.5c-3.06,0-4.81-2.48-3.9-5.54a8,8,0,0,1,2.79-3.93,7.44,7.44,0,0,1,4.41-1.62l-1,3.51A2.69,2.69,0,0,0,7283.92,7142.37Z" transform="translate(-7082.24 -7094.06)"/>
    <path class="cls-14" d="M7287.68,7147.74a7.39,7.39,0,0,1-4.4,1.62c-3.06,0-4.81-2.48-3.9-5.54a8,8,0,0,1,2.79-3.93l1.75,2.48a2.93,2.93,0,0,0-1,1.45,1.47,1.47,0,0,0,1.43,2,2.7,2.7,0,0,0,1.62-.6Z" transform="translate(-7082.24 -7094.06)"/>
    <g class="cls-40">
      <path class="cls-42" d="M7277.23,7166.07a.62.62,0,0,1-.56.43h-18.55a.31.31,0,0,1-.3-.43l2-6.81a.66.66,0,0,1,.56-.43H7279a.31.31,0,0,1,.3.43Z" transform="translate(-7082.24 -7094.06)"/>
      <path class="cls-42" d="M7269.48,7168.87a.62.62,0,0,1-.56.43h-6.32a.31.31,0,0,1-.3-.43l.23-.78a.63.63,0,0,1,.56-.44h6.32a.31.31,0,0,1,.3.44Z" transform="translate(-7082.24 -7094.06)"/>
      <path class="cls-42" d="M7264.87,7170.68a.46.46,0,0,1-.41.32h-6.75a.23.23,0,0,1-.22-.32h0a.46.46,0,0,1,.41-.31h6.75a.23.23,0,0,1,.22.31Z" transform="translate(-7082.24 -7094.06)"/>
      <path class="cls-42" d="M7264.55,7171.75a.46.46,0,0,1-.41.32h-6.74a.23.23,0,0,1-.23-.32h0a.47.47,0,0,1,.42-.32h6.74a.22.22,0,0,1,.22.32Z" transform="translate(-7082.24 -7094.06)"/>
      <path class="cls-42" d="M7264.24,7172.81a.46.46,0,0,1-.41.32h-6.75a.23.23,0,0,1-.22-.32h0a.46.46,0,0,1,.41-.32H7264a.23.23,0,0,1,.23.32Z" transform="translate(-7082.24 -7094.06)"/>
      <path class="cls-42" d="M7263.92,7173.88a.45.45,0,0,1-.41.31h-6.74a.23.23,0,0,1-.23-.31h0a.46.46,0,0,1,.41-.32h6.75a.23.23,0,0,1,.22.32Z" transform="translate(-7082.24 -7094.06)"/>
      <path class="cls-42" d="M7273.06,7170.68a.46.46,0,0,1-.41.32h-6.75a.23.23,0,0,1-.22-.32h0a.46.46,0,0,1,.41-.31h6.75a.23.23,0,0,1,.22.31Z" transform="translate(-7082.24 -7094.06)"/>
      <path class="cls-42" d="M7272.74,7171.75a.46.46,0,0,1-.41.32h-6.74a.23.23,0,0,1-.23-.32h0a.46.46,0,0,1,.42-.32h6.74a.22.22,0,0,1,.22.32Z" transform="translate(-7082.24 -7094.06)"/>
      <path class="cls-42" d="M7272.43,7172.81a.47.47,0,0,1-.42.32h-6.74a.22.22,0,0,1-.22-.32h0a.46.46,0,0,1,.41-.32h6.74a.23.23,0,0,1,.23.32Z" transform="translate(-7082.24 -7094.06)"/>
      <path class="cls-42" d="M7272.11,7173.88a.46.46,0,0,1-.41.31H7265a.23.23,0,0,1-.22-.31h0a.46.46,0,0,1,.41-.32h6.75a.23.23,0,0,1,.22.32Z" transform="translate(-7082.24 -7094.06)"/>
    </g>
    <g>
      <path class="cls-3" d="M7276.15,7165a.62.62,0,0,1-.56.43H7257a.31.31,0,0,1-.3-.43l2-6.8a.63.63,0,0,1,.56-.44h18.54a.31.31,0,0,1,.3.44Z" transform="translate(-7082.24 -7094.06)"/>
      <path class="cls-3" d="M7268.4,7167.79a.62.62,0,0,1-.56.43h-6.32a.31.31,0,0,1-.3-.43l.23-.78a.62.62,0,0,1,.56-.43h6.32a.31.31,0,0,1,.3.43Z" transform="translate(-7082.24 -7094.06)"/>
      <path class="cls-3" d="M7263.79,7169.6a.46.46,0,0,1-.41.32h-6.75a.23.23,0,0,1-.22-.32h0a.46.46,0,0,1,.41-.31h6.75a.23.23,0,0,1,.22.31Z" transform="translate(-7082.24 -7094.06)"/>
      <path class="cls-3" d="M7263.48,7170.67a.49.49,0,0,1-.42.32h-6.74a.23.23,0,0,1-.23-.32h0a.47.47,0,0,1,.42-.32h6.74a.23.23,0,0,1,.23.32Z" transform="translate(-7082.24 -7094.06)"/>
      <path class="cls-3" d="M7263.16,7171.73a.46.46,0,0,1-.41.32H7256a.23.23,0,0,1-.22-.32h0a.47.47,0,0,1,.41-.32h6.75a.23.23,0,0,1,.22.32Z" transform="translate(-7082.24 -7094.06)"/>
      <path class="cls-3" d="M7262.84,7172.8a.45.45,0,0,1-.41.31h-6.74a.23.23,0,0,1-.23-.31h0a.46.46,0,0,1,.42-.32h6.74a.22.22,0,0,1,.22.32Z" transform="translate(-7082.24 -7094.06)"/>
      <path class="cls-3" d="M7272,7169.6a.46.46,0,0,1-.41.32h-6.75a.23.23,0,0,1-.22-.32h0a.46.46,0,0,1,.41-.31h6.75a.23.23,0,0,1,.22.31Z" transform="translate(-7082.24 -7094.06)"/>
      <path class="cls-3" d="M7271.66,7170.67a.46.46,0,0,1-.41.32h-6.74a.23.23,0,0,1-.23-.32h0a.46.46,0,0,1,.42-.32h6.74a.22.22,0,0,1,.22.32Z" transform="translate(-7082.24 -7094.06)"/>
      <path class="cls-3" d="M7271.35,7171.73a.46.46,0,0,1-.42.32h-6.74a.22.22,0,0,1-.22-.32h0a.46.46,0,0,1,.41-.32h6.74a.23.23,0,0,1,.23.32Z" transform="translate(-7082.24 -7094.06)"/>
      <path class="cls-3" d="M7271,7172.8a.46.46,0,0,1-.41.31h-6.75a.23.23,0,0,1-.22-.31h0a.46.46,0,0,1,.41-.32h6.75a.23.23,0,0,1,.22.32Z" transform="translate(-7082.24 -7094.06)"/>
    </g>
    <g>
      <path class="cls-9" d="M7295.76,7171.29c-.34.86-1.4,2.16-2.59,2.16h-13a2.16,2.16,0,0,1-2.16-2.16l3.46-9.43c.44-1.31,1-2.16,2.16-2.16h13.42c1.19,0,2.56.83,2.16,2.16Z" transform="translate(-7082.24 -7094.06)"/>
      <g class="cls-43">
        <path class="cls-42" d="M7287.47,7161.16l-1.06,1.66h-.23a4.72,4.72,0,0,0-3.87,2.43h-1.75a7.21,7.21,0,0,1,6.13-4.14A4.93,4.93,0,0,1,7287.47,7161.16Z" transform="translate(-7082.24 -7094.06)"/>
        <path class="cls-42" d="M7282.62,7168.78l-1.06,1.66a3.52,3.52,0,0,1-1.49-3.56h1.75A2.26,2.26,0,0,0,7282.62,7168.78Z" transform="translate(-7082.24 -7094.06)"/>
        <path class="cls-42" d="M7290.18,7166.06a5.77,5.77,0,0,1-.31.82,7.22,7.22,0,0,1-6.13,4.15,4.75,4.75,0,0,1-.78-.06l1.05-1.66h.24a4.71,4.71,0,0,0,4.21-3.25,2.46,2.46,0,0,0-.65-2.71l1-1.66a3.5,3.5,0,0,1,1.5,3.55A6.37,6.37,0,0,1,7290.18,7166.06Z" transform="translate(-7082.24 -7094.06)"/>
        <path class="cls-42" d="M7294.85,7162.49a.63.63,0,0,1-.56.43h-1.05a.31.31,0,0,1-.3-.43l.29-1a.62.62,0,0,1,.56-.43h1a.31.31,0,0,1,.3.43Z" transform="translate(-7082.24 -7094.06)"/>
        <path class="cls-42" d="M7294.12,7164.93a.62.62,0,0,1-.56.43h-1a.31.31,0,0,1-.31-.43l.29-1a.62.62,0,0,1,.56-.43h1a.31.31,0,0,1,.31.43Z" transform="translate(-7082.24 -7094.06)"/>
        <path class="cls-42" d="M7293.4,7167.37a.63.63,0,0,1-.56.43h-1.05a.31.31,0,0,1-.3-.43l.28-1a.65.65,0,0,1,.56-.44h1.05a.31.31,0,0,1,.3.44Z" transform="translate(-7082.24 -7094.06)"/>
      </g>
      <g>
        <path class="cls-29" d="M7286.39,7160.08l-1.06,1.66h-.23a4.72,4.72,0,0,0-3.87,2.43h-1.75a7.21,7.21,0,0,1,6.13-4.14A4.93,4.93,0,0,1,7286.39,7160.08Z" transform="translate(-7082.24 -7094.06)"/>
        <path class="cls-3" d="M7281.54,7167.7l-1.06,1.66a3.52,3.52,0,0,1-1.49-3.56h1.75A2.29,2.29,0,0,0,7281.54,7167.7Z" transform="translate(-7082.24 -7094.06)"/>
        <path class="cls-13" d="M7289.1,7165a5.77,5.77,0,0,1-.31.82,7.22,7.22,0,0,1-6.13,4.15,4.75,4.75,0,0,1-.78-.06l1.06-1.66h.23a4.71,4.71,0,0,0,4.21-3.25,2.46,2.46,0,0,0-.65-2.71l1.05-1.66a3.5,3.5,0,0,1,1.5,3.55A6,6,0,0,1,7289.1,7165Z" transform="translate(-7082.24 -7094.06)"/>
        <path class="cls-29" d="M7293.77,7161.41a.62.62,0,0,1-.56.43h-1.05a.31.31,0,0,1-.3-.43l.29-1a.62.62,0,0,1,.56-.43h1a.31.31,0,0,1,.3.43Z" transform="translate(-7082.24 -7094.06)"/>
        <path class="cls-3" d="M7293,7163.85a.62.62,0,0,1-.56.43h-1a.31.31,0,0,1-.31-.43l.29-1a.62.62,0,0,1,.56-.43H7293a.31.31,0,0,1,.3.43Z" transform="translate(-7082.24 -7094.06)"/>
        <path class="cls-13" d="M7292.32,7166.29a.62.62,0,0,1-.56.43h-1.05a.31.31,0,0,1-.3-.43l.29-1a.62.62,0,0,1,.56-.43h1a.31.31,0,0,1,.3.43Z" transform="translate(-7082.24 -7094.06)"/>
      </g>
    </g>
    <path class="cls-44" d="M7268.9,7160.73a3.32,3.32,0,0,1-3,2.28,1.64,1.64,0,0,1-1.6-2.28,3.31,3.31,0,0,1,3-2.28A1.64,1.64,0,0,1,7268.9,7160.73Z" transform="translate(-7082.24 -7094.06)"/>
    <path class="cls-9" d="M7268.42,7158.86a3.31,3.31,0,0,1-3,2.28,1.65,1.65,0,0,1-1.6-2.28,3.32,3.32,0,0,1,3-2.28A1.64,1.64,0,0,1,7268.42,7158.86Z" transform="translate(-7082.24 -7094.06)"/>
    <polygon class="cls-14" points="183.68 63.81 185.09 64.79 183.09 65.78 183.68 63.81"/>
    <g>
      <path class="cls-37" d="M7263.07,7154c-.34.87-1.39,2.16-2.58,2.16h-13a2.16,2.16,0,0,1-2.16-2.16l3.45-9.42c.45-1.32,1-2.16,2.16-2.16h13.43c1.19,0,2.56.82,2.15,2.16Z" transform="translate(-7082.24 -7094.06)"/>
      <path class="cls-29" d="M7265.23,7143.32l-3.46,9.43c-.33.86-1.39,2.16-2.58,2.16h-13a2.16,2.16,0,0,1-2.16-2.16l1-2.83,1.75-4.77.67-1.83c.44-1.31,1-2.16,2.16-2.16h13.42C7264.26,7141.16,7265.63,7142,7265.23,7143.32Z" transform="translate(-7082.24 -7094.06)"/>
      <g class="cls-40">
        <path class="cls-45" d="M7248.69,7145.59l-1.19,4a.62.62,0,0,1-.55.43h-1.64a.32.32,0,0,1-.24-.09l1.75-4.77h1.57A.31.31,0,0,1,7248.69,7145.59Z" transform="translate(-7082.24 -7094.06)"/>
        <path class="cls-45" d="M7251.78,7149.58a.64.64,0,0,1-.56.43h-1.64a.31.31,0,0,1-.3-.43l2.09-7.05a.64.64,0,0,1,.56-.44h1.64a.31.31,0,0,1,.3.44Z" transform="translate(-7082.24 -7094.06)"/>
        <path class="cls-45" d="M7262.14,7141.16l-2.51,8.42a.62.62,0,0,1-.56.43h-1.63a.3.3,0,0,1-.3-.43l2.5-8.42Z" transform="translate(-7082.24 -7094.06)"/>
        <path class="cls-45" d="M7255.59,7149.58a.62.62,0,0,1-.56.43h-1.63a.31.31,0,0,1-.31-.43l1.62-5.43a.63.63,0,0,1,.56-.44h1.63a.32.32,0,0,1,.31.44Z" transform="translate(-7082.24 -7094.06)"/>
        <path class="cls-45" d="M7252.54,7141.16h.41l-.36.16-3.48,1.45-.49.21-.09-.2.54-.23,3.32-1.39.15-.06Z" transform="translate(-7082.24 -7094.06)"/>
        <path class="cls-45" d="M7258.58,7141.16l-1.55,1-.52.34-.5-.2-2.57-1-.23-.09h.3a.41.41,0,0,0,.05-.09l.23.09,2.34.94.36.14.45-.28,1.24-.8Z" transform="translate(-7082.24 -7094.06)"/>
        <g>
          <path class="cls-45" d="M7249.09,7142.88a.74.74,0,0,1-.67.51.37.37,0,0,1-.36-.51.75.75,0,0,1,.67-.52A.38.38,0,0,1,7249.09,7142.88Z" transform="translate(-7082.24 -7094.06)"/>
          <path class="cls-45" d="M7253.51,7141.16l-.07.09a.73.73,0,0,1-.51.26.36.36,0,0,1-.34-.19.43.43,0,0,1-.05-.16h.41l.13-.05.13.05Z" transform="translate(-7082.24 -7094.06)"/>
          <path class="cls-45" d="M7257,7142.36a.74.74,0,0,1-.67.52.38.38,0,0,1-.36-.52.76.76,0,0,1,.67-.51A.37.37,0,0,1,7257,7142.36Z" transform="translate(-7082.24 -7094.06)"/>
        </g>
      </g>
      <g>
        <path class="cls-9" d="M7246.21,7148.07a.62.62,0,0,1-.56.43H7244a.31.31,0,0,1-.3-.43l1.19-4a.63.63,0,0,1,.56-.43h1.63a.32.32,0,0,1,.31.43Z" transform="translate(-7082.24 -7094.06)"/>
        <path class="cls-9" d="M7250.48,7148.07a.62.62,0,0,1-.56.43h-1.64a.31.31,0,0,1-.3-.43l2.1-7.06a.63.63,0,0,1,.56-.43h1.63a.32.32,0,0,1,.31.43Z" transform="translate(-7082.24 -7094.06)"/>
        <path class="cls-9" d="M7258.34,7148.07a.62.62,0,0,1-.56.43h-1.64a.31.31,0,0,1-.3-.43l2.54-8.55a.63.63,0,0,1,.56-.44h1.64a.31.31,0,0,1,.3.44Z" transform="translate(-7082.24 -7094.06)"/>
        <path class="cls-9" d="M7254.3,7148.07a.63.63,0,0,1-.56.43h-1.64a.31.31,0,0,1-.3-.43l1.61-5.44a.63.63,0,0,1,.56-.43h1.64a.31.31,0,0,1,.3.43Z" transform="translate(-7082.24 -7094.06)"/>
        <polygon class="cls-3" points="165.09 47.4 165 47.2 169.55 45.3 172.95 46.67 178.22 43.3 183.33 39.63 183.46 39.81 178.34 43.48 172.98 46.91 169.55 45.53 165.09 47.4"/>
        <g>
          <path class="cls-9" d="M7247.8,7141.37a.76.76,0,0,1-.67.51.36.36,0,0,1-.36-.51.74.74,0,0,1,.66-.52A.38.38,0,0,1,7247.8,7141.37Z" transform="translate(-7082.24 -7094.06)"/>
          <path class="cls-9" d="M7252.3,7139.48a.75.75,0,0,1-.67.51.37.37,0,0,1-.36-.51.75.75,0,0,1,.67-.52A.38.38,0,0,1,7252.3,7139.48Z" transform="translate(-7082.24 -7094.06)"/>
          <path class="cls-9" d="M7255.72,7140.85a.76.76,0,0,1-.67.52.37.37,0,0,1-.36-.52.74.74,0,0,1,.66-.51A.37.37,0,0,1,7255.72,7140.85Z" transform="translate(-7082.24 -7094.06)"/>
          <path class="cls-9" d="M7261,7137.46a.76.76,0,0,1-.67.51.37.37,0,0,1-.36-.51.74.74,0,0,1,.67-.52A.38.38,0,0,1,7261,7137.46Z" transform="translate(-7082.24 -7094.06)"/>
        </g>
        <polygon class="cls-3" points="182.25 39.2 183.5 40.96 184.1 38.91 182.25 39.2"/>
      </g>
    </g>
    <g>
      <path class="cls-3" d="M7247.41,7168.1a3.16,3.16,0,0,0,1.19-.25,4,4,0,0,0,.73-1.28c.11-.33.56-.33.69.18s-.07.82.28,1.06,1.53-.08,1.82.49-.11.56-.09.89.26.37,0,.77-.62.32-.7.59,0,.46-.18.64-.66,0-.63.34.19.48-.3.52a7.5,7.5,0,0,1-2.48-.52c-.33-.23-.65-.81-1-.94s-.59-.22-.48-.72A8.65,8.65,0,0,1,7247.41,7168.1Z" transform="translate(-7082.24 -7094.06)"/>
      <path class="cls-29" d="M7244.54,7170.61l1.3-2.81s0-.47.61-.45,1.15-.05,1.33.29-1,2.83-1,2.83a.66.66,0,0,1-.62.5C7245.67,7171,7244.24,7171.25,7244.54,7170.61Z" transform="translate(-7082.24 -7094.06)"/>
    </g>
  </g>
</svg>
